<svg xmlns="http://www.w3.org/2000/svg" viewBox="0 0 1200 675" role="img" aria-labelledby="title desc"><title id="title">Conversations IA désordonnées</title><desc id="desc">Des bulles de conversation emmêlées sont reliées à une bibliothèque organisée.</desc><defs><linearGradient id="bg" x1="0" y1="0" x2="1" y2="1"><stop stop-color="#020617"/><stop offset="1" stop-color="#312e81"/></linearGradient></defs><rect width="1200" height="675" fill="url(#bg)"/><g transform="translate(118 95)"><rect width="964" height="470" rx="42" fill="#0f172a" stroke="#64748b" stroke-opacity=".45"/><g fill="#111827" stroke-width="3"><path d="M92 92h255a34 34 0 0 1 34 34v74a34 34 0 0 1-34 34H175l-70 56 22-56H92a34 34 0 0 1-34-34v-74a34 34 0 0 1 34-34Z" stroke="#38bdf8"/><path d="M248 250h260a34 34 0 0 1 34 34v74a34 34 0 0 1-34 34H335l-70 56 22-56h-39a34 34 0 0 1-34-34v-74a34 34 0 0 1 34-34Z" stroke="#818cf8"/><path d="M520 80h260a34 34 0 0 1 34 34v72a34 34 0 0 1-34 34H608l-70 56 22-56h-40a34 34 0 0 1-34-34v-72a34 34 0 0 1 34-34Z" stroke="#34d399"/></g><g stroke="#e0f2fe" stroke-width="7" stroke-linecap="round" opacity=".72"><path d="M105 138h190M105 168h130M300 296h160M300 326h110M575 126h160M575 156h125"/></g><g stroke="#f472b6" stroke-opacity=".55" stroke-width="5" fill="none"><path d="M340 236c175-45 295 142 430 45"/><path d="M514 248c-130-105-255 80-360 35"/></g><g transform="translate(700 285)"><rect width="175" height="105" rx="22" fill="#082f49" stroke="#7dd3fc"/><path d="M32 38h110M32 67h75" stroke="#bae6fd" stroke-width="7" stroke-linecap="round"/></g></g><text x="118" y="625" fill="#e0e7ff" font-family="Inter, Arial, sans-serif" font-size="34" font-weight="700">Quand les conversations IA deviennent introuvables</text></svg>
